<!DOCTYPE svg PUBLIC "-//W3C//DTD SVG 1.1//EN" "http://www.w3.org/Graphics/SVG/1.1/DTD/svg11.dtd">
<!-- Uploaded to: SVG Repo, www.svgrepo.com, Transformed by: SVG Repo Mixer Tools -->
<svg height="64px" width="64px" version="1.1" id="Capa_1" xmlns="http://www.w3.org/2000/svg" xmlns:xlink="http://www.w3.org/1999/xlink" viewBox="-71.6 -71.6 322.21 322.21" xml:space="preserve" fill="#000000" transform="matrix(1, 0, 0, -1, 0, 0)rotate(270)">
<g id="SVGRepo_bgCarrier" stroke-width="0"/>
<g id="SVGRepo_tracerCarrier" stroke-linecap="round" stroke-linejoin="round"/>
<g id="SVGRepo_iconCarrier"> <g> <path style="fill:#010002;" d="M31.675,94.545c0-4.356,0.638-8.616,1.838-12.727c7.829,26.946,40.068,47.723,79.95,50.724v-21.254 l33.874,33.856l-33.874,33.862v-21.003C67.476,154.542,31.675,127.452,31.675,94.545z M65.543,21.003V0L31.669,33.862 l33.874,33.856V46.464c39.894,3.001,72.128,23.778,79.95,50.724c1.187-4.105,1.838-8.366,1.838-12.727 C147.331,51.554,111.53,24.464,65.543,21.003z"/> </g> </g>
</svg>